HIERARCHY
ROOT Hips
{
	OFFSET 0.000000 71.427986 0.000000
	CHANNELS 6 Xposition Yposition Zposition Xrotation Yrotation Zrotation
	JOINT Pelvis
	{
		OFFSET 0.000000 0.000000 0.000000
		CHANNELS 3 Xrotation Yrotation Zrotation
		JOINT LeftUpLeg
		{
			OFFSET 6.797100 -2.508499 -1.318700
			CHANNELS 3 Xrotation Yrotation Zrotation
			JOINT LeftLeg
			{
				OFFSET 0.069008 -29.241863 0.690200
				CHANNELS 3 Xrotation Yrotation Zrotation
				JOINT LeftFoot
				{
					OFFSET -0.069008 -29.568123 -0.266800
					CHANNELS 3 Xrotation Yrotation Zrotation
					JOINT LeftToeBase
					{
						OFFSET 3.145500 -8.631000 16.059900
						CHANNELS 3 Xrotation Yrotation Zrotation
						End Site
						{
							OFFSET 0.000000 18.501587 0.000000
						}
					}
				}
			}
			JOINT Left_ShortSleeve
			{
				OFFSET 0.265923 -10.480953 1.153800
				CHANNELS 3 Xrotation Yrotation Zrotation
				End Site
				{
					OFFSET 1.725763 19.823879 0.000000
				}
			}
		}
		JOINT RightUpLeg
		{
			OFFSET -6.797100 -2.508499 -1.318700
			CHANNELS 3 Xrotation Yrotation Zrotation
			JOINT RightLeg
			{
				OFFSET -0.082453 -29.241932 0.688000
				CHANNELS 3 Xrotation Yrotation Zrotation
				JOINT RightFoot
				{
					OFFSET 0.082453 -29.568058 -0.264600
					CHANNELS 3 Xrotation Yrotation Zrotation
					JOINT RightToeBase
					{
						OFFSET -3.115300 -8.682800 16.113400
						CHANNELS 3 Xrotation Yrotation Zrotation
						End Site
						{
							OFFSET 0.000000 18.567114 0.000000
						}
					}
				}
			}
			JOINT Right_ShortSleeve
			{
				OFFSET -0.265923 -10.480953 1.153800
				CHANNELS 3 Xrotation Yrotation Zrotation
				End Site
				{
					OFFSET -1.725766 19.823910 0.000000
				}
			}
		}
	}
	JOINT Spine
	{
		OFFSET 0.000000 13.368103 0.470500
		CHANNELS 3 Xrotation Yrotation Zrotation
		JOINT Spine1
		{
			OFFSET 0.147000 13.837402 0.538800
			CHANNELS 3 Xrotation Yrotation Zrotation
			JOINT Spine2
			{
				OFFSET 0.168000 16.242897 -1.435500
				CHANNELS 3 Xrotation Yrotation Zrotation
				JOINT Neck
				{
					OFFSET 0.217200 18.631500 -1.679100
					CHANNELS 3 Xrotation Yrotation Zrotation
					JOINT Head
					{
						OFFSET 0.000000 6.599396 1.385900
						CHANNELS 3 Xrotation Yrotation Zrotation
						JOINT Hat
						{
							OFFSET -0.532200 27.220596 -10.096100
							CHANNELS 3 Xrotation Yrotation Zrotation
							End Site
							{
								OFFSET 0.000000 22.029861 0.000000
							}
						}
						JOINT HairD
						{
							OFFSET -10.777400 17.437393 -1.325900
							CHANNELS 3 Xrotation Yrotation Zrotation
							JOINT HairD1
							{
								OFFSET -3.290299 -11.051193 1.062200
								CHANNELS 3 Xrotation Yrotation Zrotation
								End Site
								{
									OFFSET 0.000000 11.579437 0.000000
								}
							}
						}
						JOINT HairB
						{
							OFFSET -10.777400 17.437393 1.467900
							CHANNELS 3 Xrotation Yrotation Zrotation
							JOINT HairB1
							{
								OFFSET -1.561200 -12.956299 3.590200
								CHANNELS 3 Xrotation Yrotation Zrotation
								End Site
								{
									OFFSET 0.000000 13.534866 0.000000
								}
							}
						}
						JOINT HairA
						{
							OFFSET 9.713100 17.437393 1.467900
							CHANNELS 3 Xrotation Yrotation Zrotation
							JOINT HairA1
							{
								OFFSET 1.561200 -12.956299 3.590200
								CHANNELS 3 Xrotation Yrotation Zrotation
								End Site
								{
									OFFSET 0.000000 13.534866 0.000000
								}
							}
						}
						JOINT HairC
						{
							OFFSET 9.713100 17.437393 -1.325900
							CHANNELS 3 Xrotation Yrotation Zrotation
							JOINT HairC1
							{
								OFFSET 3.290300 -11.051193 1.062200
								CHANNELS 3 Xrotation Yrotation Zrotation
								End Site
								{
									OFFSET 0.000000 11.579437 0.000000
								}
							}
						}
					}
				}
				JOINT LeftShoulder
				{
					OFFSET 5.101800 15.108002 -2.763700
					CHANNELS 3 Xrotation Yrotation Zrotation
					JOINT LeftArm
					{
						OFFSET 9.825497 2.506317 -1.597400
						CHANNELS 3 Xrotation Yrotation Zrotation
						JOINT LeftForeArm
						{
							OFFSET 21.966244 0.000000 0.000000
							CHANNELS 3 Xrotation Yrotation Zrotation
							JOINT LeftHand
							{
								OFFSET 33.879036 0.000000 0.000000
								CHANNELS 3 Xrotation Yrotation Zrotation
								JOINT LeftHandThumb1
								{
									OFFSET 6.715286 -2.359680 3.363841
									CHANNELS 3 Xrotation Yrotation Zrotation
									JOINT LeftHandThumb2
									{
										OFFSET 2.507072 -1.447464 1.447461
										CHANNELS 3 Xrotation Yrotation Zrotation
										JOINT LeftHandThumb3
										{
											OFFSET 2.898338 -1.673355 1.673357
											CHANNELS 3 Xrotation Yrotation Zrotation
											End Site
											{
												OFFSET -0.295959 3.727692 -0.131651
											}
										}
									}
								}
								JOINT LeftHandIndex1
								{
									OFFSET 14.190811 -0.254547 3.840278
									CHANNELS 3 Xrotation Yrotation Zrotation
									JOINT LeftHandIndex2
									{
										OFFSET 3.551727 0.000000 -0.000000
										CHANNELS 3 Xrotation Yrotation Zrotation
										JOINT LeftHandIndex3
										{
											OFFSET 2.894196 0.000000 0.000000
											CHANNELS 3 Xrotation Yrotation Zrotation
											End Site
											{
												OFFSET -1.000603 2.690872 0.366626
											}
										}
									}
								}
								JOINT LeftHandMiddle1
								{
									OFFSET 13.776489 0.000000 0.000000
									CHANNELS 3 Xrotation Yrotation Zrotation
									JOINT LeftHandMiddle2
									{
										OFFSET 3.438232 0.000000 0.000000
										CHANNELS 3 Xrotation Yrotation Zrotation
										JOINT LeftHandMiddle3
										{
											OFFSET 3.691551 0.000000 0.000000
											CHANNELS 3 Xrotation Yrotation Zrotation
											End Site
											{
												OFFSET -1.082298 3.499527 0.457670
											}
										}
									}
								}
								JOINT LeftHandRing1
								{
									OFFSET 13.966164 -0.268127 -3.067488
									CHANNELS 3 Xrotation Yrotation Zrotation
									JOINT LeftHandRing2
									{
										OFFSET 3.162567 0.000000 0.000000
										CHANNELS 3 Xrotation Yrotation Zrotation
										JOINT LeftHandRing3
										{
											OFFSET 3.324348 0.000000 0.000000
											CHANNELS 3 Xrotation Yrotation Zrotation
											End Site
											{
												OFFSET -0.861900 3.184998 0.405154
											}
										}
									}
								}
								JOINT LeftHandPinky1
								{
									OFFSET 13.131393 -0.168503 -5.746925
									CHANNELS 3 Xrotation Yrotation Zrotation
									JOINT LeftHandPinky2
									{
										OFFSET 2.849182 0.000000 0.000000
										CHANNELS 3 Xrotation Yrotation Zrotation
										JOINT LeftHandPinky3
										{
											OFFSET 2.805038 0.000000 0.000000
											CHANNELS 3 Xrotation Yrotation Zrotation
											End Site
											{
												OFFSET -0.882500 2.642609 0.325652
											}
										}
									}
								}
							}
							JOINT Left_Sleeve
							{
								OFFSET 6.592125 -0.646545 0.805568
								CHANNELS 3 Xrotation Yrotation Zrotation
								End Site
								{
									OFFSET -0.000179 20.275787 -0.000000
								}
							}
						}
					}
				}
				JOINT RightShoulder
				{
					OFFSET -5.731700 15.108002 -2.763700
					CHANNELS 3 Xrotation Yrotation Zrotation
					JOINT RightArm
					{
						OFFSET -9.825497 2.506317 -1.597400
						CHANNELS 3 Xrotation Yrotation Zrotation
						JOINT RightForeArm
						{
							OFFSET -21.966242 0.000000 0.000000
							CHANNELS 3 Xrotation Yrotation Zrotation
							JOINT RightHand
							{
								OFFSET -33.879032 0.000000 0.000000
								CHANNELS 3 Xrotation Yrotation Zrotation
								JOINT RightHandThumb1
								{
									OFFSET -6.715286 -2.359680 3.363841
									CHANNELS 3 Xrotation Yrotation Zrotation
									JOINT RightHandThumb2
									{
										OFFSET -2.507072 -1.447464 1.447461
										CHANNELS 3 Xrotation Yrotation Zrotation
										JOINT RightHandThumb3
										{
											OFFSET -2.898338 -1.673355 1.673357
											CHANNELS 3 Xrotation Yrotation Zrotation
											End Site
											{
												OFFSET 0.295959 3.727692 -0.131651
											}
										}
									}
								}
								JOINT RightHandIndex1
								{
									OFFSET -14.190811 -0.254547 3.840278
									CHANNELS 3 Xrotation Yrotation Zrotation
									JOINT RightHandIndex2
									{
										OFFSET -3.551727 0.000000 -0.000000
										CHANNELS 3 Xrotation Yrotation Zrotation
										JOINT RightHandIndex3
										{
											OFFSET -2.894196 0.000000 0.000000
											CHANNELS 3 Xrotation Yrotation Zrotation
											End Site
											{
												OFFSET 1.000603 2.690872 0.366626
											}
										}
									}
								}
								JOINT RightHandMiddle1
								{
									OFFSET -13.776489 0.000000 0.000000
									CHANNELS 3 Xrotation Yrotation Zrotation
									JOINT RightHandMiddle2
									{
										OFFSET -3.438232 0.000000 0.000000
										CHANNELS 3 Xrotation Yrotation Zrotation
										JOINT RightHandMiddle3
										{
											OFFSET -3.691551 0.000000 0.000000
											CHANNELS 3 Xrotation Yrotation Zrotation
											End Site
											{
												OFFSET 1.082298 3.499527 0.457670
											}
										}
									}
								}
								JOINT RightHandRing1
								{
									OFFSET -13.966164 -0.268127 -3.067488
									CHANNELS 3 Xrotation Yrotation Zrotation
									JOINT RightHandRing2
									{
										OFFSET -3.162567 0.000000 0.000000
										CHANNELS 3 Xrotation Yrotation Zrotation
										JOINT RightHandRing3
										{
											OFFSET -3.324348 0.000000 0.000000
											CHANNELS 3 Xrotation Yrotation Zrotation
											End Site
											{
												OFFSET 0.861900 3.184998 0.405154
											}
										}
									}
								}
								JOINT RightHandPinky1
								{
									OFFSET -13.131393 -0.168503 -5.746925
									CHANNELS 3 Xrotation Yrotation Zrotation
									JOINT RightHandPinky2
									{
										OFFSET -2.849182 0.000000 0.000000
										CHANNELS 3 Xrotation Yrotation Zrotation
										JOINT RightHandPinky3
										{
											OFFSET -2.805038 0.000000 0.000000
											CHANNELS 3 Xrotation Yrotation Zrotation
											End Site
											{
												OFFSET 0.882500 2.642609 0.325652
											}
										}
									}
								}
							}
							JOINT Right_Sleeve
							{
								OFFSET -6.592125 -0.646545 0.805568
								CHANNELS 3 Xrotation Yrotation Zrotation
								End Site
								{
									OFFSET 0.000179 20.275787 -0.000000
								}
							}
						}
					}
				}
				JOINT Bind_Right_JacketString
				{
					OFFSET -3.534800 11.969597 7.200700
					CHANNELS 3 Xrotation Yrotation Zrotation
					JOINT Bind_Right_JacketString1
					{
						OFFSET -0.319900 -6.102600 2.794100
						CHANNELS 3 Xrotation Yrotation Zrotation
						End Site
						{
							OFFSET 0.000000 6.719452 0.000000
						}
					}
				}
				JOINT Bind_Left_JacketString
				{
					OFFSET 2.904800 11.969597 7.200700
					CHANNELS 3 Xrotation Yrotation Zrotation
					JOINT Bind_Left_JacketString1
					{
						OFFSET 0.364800 -5.904503 3.186800
						CHANNELS 3 Xrotation Yrotation Zrotation
						End Site
						{
							OFFSET 0.000000 6.719513 0.000000
						}
					}
				}
				JOINT HairE
				{
					OFFSET 5.915200 17.612701 -11.592200
					CHANNELS 3 Xrotation Yrotation Zrotation
					JOINT HairE1
					{
						OFFSET 0.289200 -7.171898 -1.284500
						CHANNELS 3 Xrotation Yrotation Zrotation
						End Site
						{
							OFFSET 0.000000 7.291756 0.000000
						}
					}
				}
				JOINT HairF
				{
					OFFSET -0.864800 17.612701 -11.592200
					CHANNELS 3 Xrotation Yrotation Zrotation
					JOINT HairF1
					{
						OFFSET 0.000000 -14.087097 -2.127501
						CHANNELS 3 Xrotation Yrotation Zrotation
						End Site
						{
							OFFSET 0.000000 14.246841 0.000000
						}
					}
				}
				JOINT HairG
				{
					OFFSET -8.087700 17.612701 -11.592200
					CHANNELS 3 Xrotation Yrotation Zrotation
					JOINT HairG1
					{
						OFFSET -0.293600 -6.081398 -0.910100
						CHANNELS 3 Xrotation Yrotation Zrotation
						End Site
						{
							OFFSET 0.000000 6.156120 0.000000
						}
					}
				}
			}
		}
	}
	JOINT Pouch
	{
		OFFSET 0.000000 4.394501 10.847300
		CHANNELS 3 Xrotation Yrotation Zrotation
		End Site
		{
			OFFSET 0.000000 21.880577 0.000000
		}
	}
	JOINT Bag
	{
		OFFSET -13.229000 4.813004 -0.593300
		CHANNELS 3 Xrotation Yrotation Zrotation
		End Site
		{
			OFFSET 0.000000 21.880577 0.000000
		}
	}
	JOINT OccupyGuyFacialAnim_Joint
	{
		OFFSET 1.000000 -70.206398 -1.655000
		CHANNELS 3 Xrotation Yrotation Zrotation
		End Site
		{
			OFFSET 0.000000 21.880577 0.000000
		}
	}
}
MOTION
Frames: 5
Frame Time: 0.033333
-0.035218 70.332603 0.122308 2.912484 -28.986165 1.187808 -0.000000 -0.000000 -0.000000 -14.989260 18.712101 9.350964 17.122002 13.218411 -0.902131 -4.452896 -4.009188 -5.091344 0.000000 -0.000000 0.000000 -0.000000 0.000000 -0.000001 -5.454328 -1.939719 -9.247124 10.906439 9.754724 0.829470 -8.841973 -1.036141 7.074655 -0.000000 0.000003 -0.000000 0.000000 0.000000 -0.000000 7.835993 -0.366752 -2.679176 1.099248 -0.880570 2.383462 1.108682 -0.590422 2.446365 -3.843178 18.019193 -6.496457 -6.331565 13.021356 0.301939 -0.000000 -0.000000 -0.000000 -0.000000 -0.000000 -0.000000 -0.000000 -0.000000 -0.000000 -0.000000 -0.000000 -0.000000 -0.000000 -0.000000 -0.000000 -0.000000 -0.000000 -0.000000 -0.000000 -0.000000 -0.000000 -0.000000 -0.000000 -0.000000 -0.000000 -0.000000 -0.000000 -0.061201 -8.759267 -0.060907 -55.250766 0.329471 -41.449314 11.584220 -65.827382 13.005357 -50.191030 12.352945 4.610834 17.551636 -5.699217 -12.932280 10.850469 26.127760 8.644826 0.000002 0.000001 -0.000001 13.980931 1.201549 -55.004388 0.370781 1.161724 -65.441866 -0.000000 0.000001 0.000000 7.504741 1.174493 -63.778483 1.807849 1.475629 -64.567943 0.000001 -0.000000 0.000002 8.574327 2.179065 -75.149006 -0.207628 1.009247 -57.855063 -0.000000 -0.000001 0.000001 10.030108 13.637029 -84.750271 0.877073 0.062347 -64.595524 -0.000000 0.000000 -0.000002 -0.000000 -0.000001 0.000003 4.849289 7.760186 5.560462 -0.933654 -2.176802 61.845621 11.299219 18.943103 -3.987332 -0.459236 6.620260 5.830447 15.788510 -2.734487 -17.205853 -2.198281 -31.113578 7.361310 0.000002 0.000001 0.000000 2.362807 -3.663752 8.486864 -2.151004 -2.476983 18.672830 0.000001 0.000000 0.000002 -1.966470 -5.714545 13.662931 0.284957 -5.115317 26.988056 -0.000001 0.000001 -0.000002 -3.265336 -8.565990 11.768561 4.025988 -4.062183 33.262417 0.000000 0.000000 -0.000004 -6.473431 -11.358915 23.259355 10.725524 -2.565231 34.824225 -0.000000 0.000001 0.000001 -0.000000 0.000000 -0.000000 -0.000000 -0.000002 0.000000 0.000001 0.000001 -0.000001 -0.000000 -0.000002 0.000001 -0.000000 -0.000002 0.000001 -0.000000 -0.000002 0.000000 0.000001 0.000001 -0.000000 -0.000000 -0.000002 0.000001 -0.000000 -0.000002 0.000001 -0.000000 -0.000002 0.000000 0.000001 0.000001 -0.000000 -0.000000 -0.000000 -0.000000 -0.000000 -0.000000 -0.000000 -0.000000 -0.000000 -0.000000 
0.126043 70.283875 0.571355 2.574510 -29.310579 1.009823 -0.000000 -0.000001 -0.000000 -15.027931 18.894310 9.490930 18.728589 13.216682 -1.305621 -5.719568 -3.983768 -4.750197 -0.000000 0.000000 0.000000 0.000000 0.000000 -0.000000 -4.782811 -2.204869 -9.727684 10.527527 9.970855 1.179313 -8.962877 -1.010386 7.198376 0.000000 -0.000002 0.000000 -0.000000 0.000001 -0.000000 7.905191 -0.197569 -2.754277 1.122959 -0.753473 2.402059 1.127449 -0.462748 2.451556 -3.376028 17.869071 -6.423561 -6.186814 13.081146 0.288948 0.000000 0.000000 0.000000 0.000000 0.000000 0.000000 0.000000 0.000000 0.000000 0.000000 0.000000 0.000000 0.000000 -0.000000 0.000000 0.000000 0.000000 0.000000 0.000000 -0.000000 0.000000 0.000000 0.000000 0.000000 0.000000 0.000000 0.000000 -0.127481 -8.519641 -0.501001 -55.528096 0.105350 -40.787257 12.315722 -66.579181 13.323948 -48.441320 12.213223 4.915598 17.551640 -5.699221 -12.932278 10.850467 26.127758 8.644825 -0.000001 -0.000000 -0.000001 13.980930 1.201548 -55.004384 0.370782 1.161723 -65.441873 -0.000000 -0.000001 0.000001 7.504743 1.174493 -63.778483 1.807849 1.475631 -64.567943 -0.000000 -0.000001 -0.000003 8.574329 2.179063 -75.149006 -0.207627 1.009246 -57.855063 -0.000003 -0.000001 -0.000003 10.030109 13.637031 -84.750271 0.877074 0.062346 -64.595531 -0.000001 0.000000 -0.000002 -0.000001 -0.000003 0.000003 4.685520 8.236697 6.284025 -0.185895 -2.404230 60.916285 10.554482 18.991638 -3.595488 -0.385417 6.478570 4.698953 15.788510 -2.734487 -17.205853 -2.198278 -31.113578 7.361311 -0.000000 -0.000001 0.000004 2.362798 -3.663753 8.486842 -2.151000 -2.476975 18.672834 0.000001 0.000000 0.000000 -1.966477 -5.714540 13.662905 0.284960 -5.115319 26.988104 0.000001 0.000000 -0.000001 -3.265344 -8.565987 11.768531 4.025998 -4.062177 33.262437 -0.000000 -0.000001 0.000002 -6.473451 -11.358913 23.259326 10.725539 -2.565236 34.824276 0.000000 0.000000 0.000001 -0.000000 -0.000000 -0.000000 -0.000000 -0.000000 -0.000000 0.000000 -0.000002 0.000000 -0.000000 -0.000000 -0.000000 -0.000000 -0.000000 -0.000000 -0.000000 -0.000000 -0.000000 0.000000 -0.000002 0.000001 -0.000000 -0.000000 -0.000000 -0.000000 -0.000000 -0.000000 -0.000000 -0.000000 -0.000000 0.000000 -0.000002 0.000001 -0.000000 -0.000001 -0.000000 -0.000000 -0.000001 -0.000000 -0.000000 -0.000001 -0.000000 
0.321288 70.174789 1.126890 2.287631 -29.546056 0.852877 0.000000 0.000001 0.000000 -15.280376 19.017972 9.624911 20.812008 13.141594 -1.706875 -7.313759 -3.942445 -4.453502 -0.000000 0.000000 0.000000 -0.000001 -0.000001 -0.000000 -4.372430 -2.392258 -10.259479 10.740399 10.041488 1.355042 -9.437821 -1.014644 7.498591 0.000000 -0.000000 0.000000 0.000000 0.000004 -0.000000 7.792200 -0.033802 -2.690536 1.136028 -0.643946 2.371289 1.135927 -0.357398 2.409371 -2.655064 17.705145 -6.521948 -6.017986 13.067870 0.383065 -0.000000 -0.000000 -0.000000 -0.000000 -0.000000 -0.000000 -0.000000 -0.000000 -0.000000 -0.000000 -0.000000 0.000000 -0.000000 0.000000 0.000000 -0.000000 -0.000000 0.000000 -0.000000 0.000000 0.000000 -0.000000 -0.000000 -0.000000 -0.000000 -0.000000 -0.000000 -0.211748 -8.259774 -1.153373 -55.560973 -0.310287 -40.112997 13.880725 -67.252556 14.487586 -46.632109 12.016430 5.364297 17.551638 -5.699222 -12.932278 10.850466 26.127765 8.644830 -0.000001 -0.000000 -0.000001 13.980931 1.201546 -55.004384 0.370781 1.161726 -65.441866 -0.000001 0.000000 -0.000000 7.504744 1.174492 -63.778483 1.807846 1.475633 -64.567943 0.000003 -0.000000 0.000004 8.574329 2.179062 -75.149006 -0.207628 1.009247 -57.855063 0.000001 -0.000000 0.000001 10.030108 13.637028 -84.750278 0.877074 0.062346 -64.595524 -0.000000 -0.000001 0.000003 0.000001 0.000000 0.000000 4.498068 8.851145 6.688604 0.396656 -3.156971 60.409355 10.209220 18.902945 -3.442190 -0.309064 6.320273 3.363309 15.788510 -2.734486 -17.205854 -2.198280 -31.113585 7.361307 -0.000002 -0.000001 0.000001 2.362802 -3.663754 8.486834 -2.150999 -2.476975 18.672829 0.000001 -0.000000 0.000000 -1.966469 -5.714548 13.662923 0.284949 -5.115308 26.988063 -0.000000 -0.000001 0.000001 -3.265335 -8.565983 11.768529 4.025990 -4.062180 33.262424 0.000001 -0.000001 -0.000001 -6.473435 -11.358919 23.259390 10.725539 -2.565234 34.824239 -0.000001 0.000001 -0.000003 -0.000001 -0.000000 0.000002 -0.000000 0.000001 -0.000001 -0.000000 0.000001 -0.000001 -0.000000 0.000001 -0.000000 -0.000000 0.000001 -0.000000 -0.000000 0.000001 -0.000001 -0.000000 0.000001 -0.000000 -0.000000 0.000001 -0.000000 -0.000000 0.000001 -0.000000 -0.000000 0.000001 -0.000001 -0.000000 0.000001 -0.000000 0.000000 0.000001 0.000000 0.000000 0.000001 0.000000 0.000000 0.000001 0.000000 
0.581968 69.993591 1.844936 2.057335 -29.422307 0.773821 -0.000000 -0.000000 -0.000000 -15.624133 18.867390 9.418302 23.181915 13.046469 -1.813192 -9.180465 -3.872191 -4.355003 -0.000000 -0.000000 0.000000 0.000000 0.000001 -0.000000 -4.167941 -2.569066 -10.857375 11.694336 9.791048 1.252500 -10.430933 -1.090953 8.028297 0.000000 0.000000 0.000000 -0.000000 -0.000000 0.000000 7.354883 0.010337 -2.576914 1.222219 -0.616943 2.317165 1.221368 -0.344791 2.353467 -1.644800 17.386788 -6.697670 -5.943850 12.918794 0.424137 0.000000 -0.000000 0.000000 0.000000 -0.000000 0.000000 0.000000 -0.000000 0.000000 0.000000 -0.000000 0.000000 0.000000 -0.000000 0.000000 0.000000 -0.000000 0.000000 0.000000 -0.000000 0.000000 0.000000 -0.000000 0.000000 0.000000 -0.000000 0.000000 -0.289572 -7.914631 -1.955088 -55.387227 -1.085103 -39.567412 15.162772 -67.696061 15.442605 -44.760764 11.775036 6.120768 17.551636 -5.699218 -12.932278 10.850468 26.127758 8.644826 0.000001 0.000001 -0.000001 13.980932 1.201549 -55.004384 0.370781 1.161725 -65.441866 0.000001 -0.000001 0.000003 7.504743 1.174491 -63.778483 1.807849 1.475631 -64.567943 -0.000000 0.000000 0.000001 8.574328 2.179063 -75.149006 -0.207629 1.009246 -57.855063 0.000002 0.000001 -0.000004 10.030109 13.637029 -84.750271 0.877075 0.062346 -64.595524 0.000001 -0.000000 -0.000002 0.000002 0.000001 0.000001 4.339722 9.024180 7.152454 0.983337 -3.857150 59.861226 9.712404 18.896731 -3.243262 -0.221819 6.226721 1.815033 15.788512 -2.734488 -17.205854 -2.198282 -31.113581 7.361310 -0.000000 -0.000002 0.000005 2.362790 -3.663755 8.486824 -2.150994 -2.476985 18.672858 -0.000001 0.000000 0.000000 -1.966482 -5.714545 13.662900 0.284955 -5.115314 26.988077 -0.000000 -0.000001 0.000003 -3.265349 -8.565986 11.768524 4.026000 -4.062182 33.262441 -0.000002 -0.000001 -0.000000 -6.473456 -11.358920 23.259345 10.725546 -2.565234 34.824232 0.000000 0.000000 0.000001 0.000000 0.000000 0.000001 -0.000000 0.000000 -0.000000 0.000000 0.000002 -0.000001 -0.000000 0.000000 -0.000000 -0.000000 0.000000 -0.000000 -0.000000 0.000000 -0.000000 0.000000 0.000002 -0.000000 -0.000000 0.000000 -0.000000 -0.000000 0.000000 -0.000000 -0.000000 0.000000 -0.000000 0.000000 0.000002 -0.000000 -0.000000 -0.000000 -0.000000 -0.000000 -0.000000 -0.000000 -0.000000 -0.000000 -0.000000 
0.939778 69.772125 2.675927 1.634799 -29.058644 0.654681 -0.000000 0.000001 0.000000 -15.681267 18.612052 8.968924 25.531546 12.903072 -1.904170 -11.138835 -3.797276 -4.253249 -0.000000 0.000000 0.000000 0.000000 -0.000000 -0.000000 -3.714086 -2.722432 -11.461084 12.823071 9.266790 0.843760 -11.638250 -1.224367 8.808005 -0.000000 -0.000000 0.000000 -0.000000 -0.000005 -0.000001 7.246377 -0.023552 -2.218021 1.201325 -0.644719 2.111202 1.201976 -0.395000 2.150615 -0.403856 16.795251 -6.783136 -6.035648 12.640626 0.189240 0.000000 0.000000 0.000000 0.000000 0.000000 0.000000 0.000000 0.000000 0.000000 0.000000 0.000000 0.000000 0.000000 -0.000000 0.000000 0.000000 0.000000 0.000000 0.000000 -0.000000 0.000000 0.000000 0.000000 0.000000 0.000000 0.000000 0.000000 -0.350956 -7.600552 -2.513604 -55.138334 -1.725612 -39.206150 17.125762 -67.963340 16.988699 -42.774114 11.562184 6.688275 17.551634 -5.699220 -12.932279 10.850469 26.127762 8.644829 -0.000001 0.000001 -0.000001 13.980931 1.201548 -55.004384 0.370782 1.161723 -65.441866 0.000003 0.000003 -0.000001 7.504745 1.174494 -63.778483 1.807849 1.475632 -64.567943 -0.000000 0.000001 -0.000004 8.574329 2.179064 -75.149006 -0.207627 1.009245 -57.855063 -0.000001 0.000000 -0.000003 10.030108 13.637029 -84.750271 0.877072 0.062346 -64.595524 -0.000000 -0.000001 0.000003 0.000000 0.000002 0.000001 4.165990 9.273630 7.683003 1.408936 -5.003800 59.415740 9.275102 18.790646 -3.178872 -0.162026 6.308427 0.910001 15.788512 -2.734487 -17.205854 -2.198281 -31.113581 7.361311 -0.000001 0.000001 0.000001 2.362794 -3.663757 8.486858 -2.150998 -2.476977 18.672829 0.000001 -0.000001 0.000002 -1.966487 -5.714546 13.662908 0.284960 -5.115319 26.988075 0.000000 -0.000000 0.000001 -3.265344 -8.565984 11.768513 4.026002 -4.062177 33.262424 -0.000000 -0.000000 -0.000002 -6.473436 -11.358918 23.259386 10.725535 -2.565236 34.824225 -0.000002 0.000001 -0.000001 -0.000000 -0.000000 -0.000001 0.000001 0.000001 -0.000001 0.000001 -0.000001 0.000000 0.000001 0.000001 -0.000001 0.000001 0.000001 -0.000001 0.000001 0.000001 -0.000001 0.000001 -0.000001 -0.000000 0.000001 0.000001 -0.000001 0.000001 0.000001 -0.000001 0.000001 0.000001 -0.000001 0.000001 -0.000001 -0.000000 -0.000000 0.000001 0.000000 -0.000000 0.000001 0.000000 -0.000000 0.000001 0.000000 
